# xmcd CD database file
#
# Track frame offsets:
#	183
#	3433
#	15358
#	28908
#	42708
#	62833
#	79295
#	97608
#	108520
#	122133
#	136495
#	158483
#	169633
#	183645
#	204508
#	221858
#	232720
#	247758
#	257070
#
# Disc length: 3479 seconds
#
# Revision: 1
# Processed by: cddbd v1.5PL3 Copyright (c) Steve Scherf et al.
# Submitted via: CDex 1.51
#
DISCID=f80d9513
DTITLE=Stan Kenton - Innovations - Live 1951
DYEAR=1951
DGENRE=Jazz
TTITLE0=Artistry in rhythm
TTITLE1=Jambo
TTITLE2=Autumn leaves
TTITLE3=Southern scandal
TTITLE4=Yesterdays
TTITLE5=Viva prado
TTITLE6=Walkin by the river
TTITLE7=Lullaby in rhythm
TTITLE8=I'll remember april
TTITLE9=Love for sale
TTITLE10=Painted rhythm
TTITLE11=Laura
TTITLE12=Blues in riff
TTITLE13=Eager beaver
TTITLE14=I only have eyes for you
TTITLE15=Collaboration
TTITLE16=Intermission riff
TTITLE17=Round robin
TTITLE18=Artistry in rhythm
EXTD=YEAR: 1951
EXTT0=
EXTT1=
EXTT2=
EXTT3=
EXTT4=
EXTT5=
EXTT6=
EXTT7=
EXTT8=
EXTT9=
EXTT10=
EXTT11=
EXTT12=
EXTT13=
EXTT14=
EXTT15=
EXTT16=
EXTT17=
EXTT18=
PLAYORDER=
